<svg class="border shadow-md" viewBox="0 0 952.16 535.59" xmlns="http://www.w3.org/2000/svg" preserveAspectRatio="none" style="width: 952.16px; height: 535.59px;"><rect class="bg" id="bg" x="0" y="0" width="952.16" height="535.59" fill="#ffffff"/><g transform="rotate(0 476.08 267.795)"><path id="-1" d="M -384.05 -77.12 S -202.03 -130.68&#10;            0.00 -77.12 103.05 -147.12&#10;            384.05 -77.12 566.08 -130.68&#10;            768.11 -77.12 950.13 -130.68&#10;            1152.16 -77.12 1334.19 -130.68&#10;            1536.21 -77.12 h 110 V 735.59 H -384.05 Z" fill="#1BA4FF"/><path id="0" d="M -384.05 30.00 S -202.03 -23.56&#10;            0.00 30.00 4.05 -23.56&#10;            384.05 30.00 566.08 -30.00&#10;            768.11 30.00 824.16 -23.56&#10;            1152.16 30.00 1334.19 -23.56&#10;            1536.21 30.00 h 110 V 735.59 H -384.05 Z" fill="#1d8ce8"/><path id="1" d="M -384.05 137.12 S -237.00 58.12&#10;            0.00 137.12 88.05 31.12&#10;            384.05 137.12 566.08 83.56&#10;            768.11 137.12 950.13 83.56&#10;            1152.16 137.12 1306.21 83.56&#10;            1536.21 137.12 h 110 V 735.59 H -384.05 Z" fill="#1f74d1"/><path id="2" d="M -384.05 244.24 S -202.03 162.24&#10;            0.00 244.24 182.03 190.68&#10;            384.05 244.24 566.08 175.24&#10;            768.11 244.24 820.16 179.24&#10;            1152.16 244.24 1334.19 190.68&#10;            1536.21 244.24 h 110 V 735.59 H -384.05 Z" fill="#215cba"/><path id="3" d="M -384.05 351.35 S -202.03 297.80&#10;            0.00 351.35 182.03 285.35&#10;            384.05 351.35 566.08 294.35&#10;            768.11 351.35 950.13 297.80&#10;            1152.16 351.35 1334.19 297.80&#10;            1536.21 351.35 h 110 V 735.59 H -384.05 Z" fill="#2344a3"/><path id="4" d="M -384.05 458.47 S -367.00 370.47&#10;            0.00 458.47 182.03 404.91&#10;            384.05 458.47 566.08 399.47&#10;            768.11 458.47 898.16 367.47&#10;            1152.16 458.47 1334.19 404.91&#10;            1536.21 458.47 h 110 V 735.59 H -384.05 Z" fill="#252c8c"/></g></svg>