<?xml version="1.0" encoding="utf-8"?><!-- Uploaded to: SVG Repo, www.svgrepo.com, Generator: SVG Repo Mixer Tools -->
<svg width="800px" height="800px" viewBox="-20 0 190 190" fill="none" xmlns="http://www.w3.org/2000/svg">
<path fill-rule="evenodd" clip-rule="evenodd" d="M140.85 86.7L138 86.18L139 80.46L133.17 83.12L134.6 91.6L130.32 94.09L130.5 105L126.27 108.42L121.9 103.35L119.09 103.22C113.54 107.3 113.88 112.22 113.88 112.22L111.77 112.52C108.678 109.261 106.721 105.091 106.19 100.63L101.47 100.9L95.66 94.9L94 96.3L96.72 101.64L99.17 102L101.17 104.29L93 109L86.83 97.14L87.61 90.4L84.24 90.82L80.64 87.68L78.93 87.82L80.38 92.41L74.18 94.41L74 88.44L61.51 92.44V84.79L66.14 84.51L69.28 76.63L77.15 76.74L75.29 73.85L77.9 70.85C77.9 70.85 75.72 69.08 74.43 71.08L71.92 70.65C71.92 63.17 85.75 60.89 88.1 69.56L100.73 67.3L103.1 62.14L119 59.65L120.38 64.18L133.96 65.38L149.47 70.53L149.71 75L140.85 86.7ZM64 96.53L69.51 96.92L75.87 100.33L80.11 97.55L85 98L90.32 112.11L98.59 112.85C98.59 112.85 98.48 118.52 91.1 120.73L89.61 129L85.34 133.32C85.82 141.17 76.34 143.62 76.34 143.62L71.18 136.47L70.88 124.96L66.75 120.84L60.08 122L54.93 114.57L55.3 105.65L61.68 101.59L64 96.53ZM46.46 128.27L45.05 131.6L40.58 132.75L37.58 138.94L33.14 142.79L30.6 152.07L27.5 151.72C25.0839 143.682 24.0326 135.296 24.39 126.91L18.56 124.64L14.85 117.35L20.62 111.51L20.9 109.65L11.9 102.91L10.9 91.33L9.13001 90.45L8.48001 95.26L6.58001 94.81L5.00001 84.83C10 68.11 6.55001 63.2 1.00001 64.75L0.320007 62.19L11.87 59C11.87 59 15.47 66.54 26.8 69.2C19.28 73.44 23.8 79.48 27.05 78.39L27.85 80.98L29.39 80.88L30.65 72.62L39.13 80.14L35.22 84L38 86.05L32.6 93.13C29.46 92.34 27.47 95.71 29.07 98.83L27.73 99.38C24.25 93.63 18 95.82 18 102L19.86 103.1L23.34 101.61L23.85 106.49H31.09L40.09 111.23L40.22 114.55L50.07 118.65L49.95 123.38L46.46 128.27ZM32.16 67L28.59 66.86L26.1 64.7L29.33 58L36.25 58.9C35.25 64.09 40.25 65.23 40.25 65.23L41.46 73.23L39.76 74.23L32.16 67ZM126.9 127.9L129.9 128.56L129.98 131.5L133.73 132.5L135.94 127.42L141.94 137.76L140.94 146.98L135 148.3L129.74 143L116.91 145.3L115.91 135.43L121.83 133.12L126.9 127.9Z" fill="#000000"/>
</svg>