<?xml version="1.0" standalone="no"?><svg xmlns:xlink="http://www.w3.org/1999/xlink" xmlns="http://www.w3.org/2000/svg" viewBox="0 0 1000 636.3704499462863" preserveAspectRatio="xMaxYMax slice"><g transform="scale(1.598920728508257)"><rect x="0" y="0" width="625.4285714285714" height="398" fill="#ffffff"/><rect x="0" y="0" width="56.86" height="56.86" fill="#afbdf5"/><path d="M 0 0 A 56.86 56.86 0 0 1 56.86 56.86 L 0 56.86L0 0" fill="#ffc9d6"/><rect x="56.86" y="0" width="56.86" height="56.86" fill="#c5cff8"/><polygon points="56.86,0 113.72,56.86 56.86,56.86" fill="#ffbdcd"/><rect x="113.71" y="0" width="56.86" height="56.86" fill="#cfd7f9"/><polygon points="113.71,0 170.57,0 113.71,56.86" fill="#2a4ee3"/><rect x="170.57142857142856" y="0" width="56.857142857142854" height="56.857142857142854" fill="#ffffff"/><rect x="170.57" y="0" width="28.43" height="28.43" fill="#b9c5f6"/><circle cx="184.785" cy="14.215" r="14.215" fill="#ffa2b8"/><rect x="199" y="0" width="28.43" height="28.43" fill="#fff6f8"/><rect x="199" y="0" width="28.43" height="28.43" fill="#f2f4fd"/><rect x="170.57" y="28.43" width="28.43" height="28.43" fill="#ff7394"/><circle cx="184.785" cy="42.644999999999996" r="14.215" fill="#95a7f1"/><rect x="199" y="28.43" width="28.43" height="28.43" fill="#8da1f0"/><rect x="199" y="28.43" width="28.43" height="28.43" fill="#4967e7"/><rect x="227.43" y="0" width="56.86" height="56.86" fill="#ff9db4"/><polygon points="227.43,0 284.29,0 284.29,56.86" fill="#ffd9e2"/><rect x="284.2857142857143" y="0" width="56.857142857142854" height="56.857142857142854" fill="#ffffff"/><rect x="284.29" y="0" width="28.43" height="28.43" fill="#4867e7"/><polygon points="312.72,0 312.72,28.43 284.29,28.43" fill="#ff4e78"/><rect x="312.71" y="0" width="28.43" height="28.43" fill="#d3daf9"/><polygon points="312.71,0 341.14,28.43 312.71,28.43" fill="#abb9f4"/><rect x="284.29" y="28.43" width="28.43" height="28.43" fill="#ff678b"/><polygon points="284.29,28.43 312.72,28.43 284.29,56.86" fill="#ff6f91"/><rect x="312.71" y="28.43" width="28.43" height="28.43" fill="#ff698c"/><polygon points="312.71,28.43 341.14,28.43 341.14,56.86" fill="#ff3968"/><rect x="341.1428571428571" y="0" width="56.857142857142854" height="56.857142857142854" fill="#ffffff"/><rect x="341.14" y="0" width="28.43" height="28.43" fill="#c9d2f8"/><polygon points="369.57,0 369.57,28.43 341.14,28.43" fill="#ffd3dd"/><rect x="369.57" y="0" width="28.43" height="28.43" fill="#ff6b8e"/><polygon points="369.57,0 398,28.43 369.57,28.43" fill="#ffd4de"/><rect x="341.14" y="28.43" width="28.43" height="28.43" fill="#b9c5f6"/><polygon points="341.14,28.43 369.57,28.43 369.57,56.86" fill="#ff7092"/><rect x="369.57" y="28.43" width="28.43" height="28.43" fill="#ffacbf"/><polygon points="369.57,28.43 398,28.43 369.57,56.86" fill="#ff7092"/><rect x="398" y="0" width="56.86" height="56.86" fill="#ffe2e9"/><path d="M 398 0 A 56.86 56.86 0 0 1 454.86 56.86 L 398 56.86L398 0" fill="#aebcf5"/><rect x="454.86" y="0" width="56.86" height="56.86" fill="#2449e3"/><path d="M 454.86 56.86 A 56.86 56.86 0 0 1  511.72 0 L 454.86 56.86 A 56.86 56.86 0 0 0 511.72 0" fill="#afbcf5"/><rect x="511.71" y="0" width="56.86" height="56.86" fill="#2c4fe4"/><path d="M 511.71 56.86 A 56.86 56.86 0 0 0 568.5699999999999 0 L 511.71 0L511.71 56.86" fill="#ffc4d2"/><rect x="568.5714285714286" y="0" width="56.857142857142854" height="56.857142857142854" fill="#ffffff"/><rect x="568.57" y="0" width="28.43" height="28.43" fill="#d0d8f9"/><path d="M 568.57 28.43 A 28.43 28.43 0 0 0 597 0 L 568.57 0L568.57 28.43" fill="#d1d9f9"/><rect x="597" y="0" width="28.43" height="28.43" fill="#ff4a75"/><path d="M 597 0 A 28.43 28.43 0 0 0 625.43 28.43 L 625.43 0L597 0" fill="#ff8ea9"/><rect x="568.57" y="28.43" width="28.43" height="28.43" fill="#2248e2"/><path d="M 568.57 28.43 A 28.43 28.43 0 0 1 597 56.86 L 568.57 56.86L568.57 28.43" fill="#9cacf2"/><rect x="597" y="28.43" width="28.43" height="28.43" fill="#ff6e90"/><path d="M 597 56.86 A 28.43 28.43 0 0 1  625.43 28.43 L 625.43 56.86L597 56.86" fill="#ff819f"/><rect x="0" y="56.857142857142854" width="56.857142857142854" height="56.857142857142854" fill="#ffffff"/><rect x="0" y="56.86" width="28.43" height="28.43" fill="#ffa0b7"/><polygon points="28.43,56.86 28.43,85.28999999999999 0,85.28999999999999" fill="#ff6388"/><rect x="28.43" y="56.86" width="28.43" height="28.43" fill="#ff537c"/><polygon points="28.43,56.86 56.86,56.86 28.43,85.28999999999999" fill="#ff7d9c"/><rect x="0" y="85.29" width="28.43" height="28.43" fill="#ff88a4"/><polygon points="0,85.29 28.43,85.29 28.43,113.72" fill="#c9d2f8"/><rect x="28.43" y="85.29" width="28.43" height="28.43" fill="#ff89a5"/><polygon points="28.43,85.29 56.86,113.72 28.43,113.72" fill="#fff8f9"/><rect x="56.857142857142854" y="56.857142857142854" width="56.857142857142854" height="56.857142857142854" fill="#ffffff"/><rect x="56.86" y="56.86" width="28.43" height="28.43" fill="#ff9eb5"/><polygon points="85.28999999999999,56.86 85.28999999999999,85.28999999999999 56.86,85.28999999999999" fill="#ff406d"/><rect x="85.29" y="56.86" width="28.43" height="28.43" fill="#b9c5f6"/><polygon points="85.29,56.86 113.72,85.28999999999999 85.29,85.28999999999999" fill="#4161e6"/><rect x="56.86" y="85.29" width="28.43" height="28.43" fill="#ffccd8"/><polygon points="56.86,85.29 85.28999999999999,85.29 56.86,113.72" fill="#889cf0"/><rect x="85.29" y="85.29" width="28.43" height="28.43" fill="#4b6ae8"/><polygon points="85.29,85.29 113.72,85.29 113.72,113.72" fill="#ff3a69"/><rect x="113.71428571428571" y="56.857142857142854" width="56.857142857142854" height="56.857142857142854" fill="#ffffff"/><rect x="113.71" y="56.86" width="28.43" height="28.43" fill="#ffb0c3"/><path d="M 113.71 56.86 A 28.43 28.43 0 0 0 142.14 85.28999999999999 L 142.14 56.86L113.71 56.86" fill="#bac5f6"/><rect x="142.14" y="56.86" width="28.43" height="28.43" fill="#ffdae3"/><path d="M 142.14 85.28999999999999 A 28.43 28.43 0 0 0 170.57 56.86 L 142.14 56.86L142.14 85.28999999999999" fill="#ffe5eb"/><rect x="113.71" y="85.29" width="28.43" height="28.43" fill="#4a69e8"/><path d="M 113.71 113.72 A 28.43 28.43 0 0 1  142.14 85.29 L 142.14 113.72L113.71 113.72" fill="#7e93ee"/><rect x="142.14" y="85.29" width="28.43" height="28.43" fill="#ffadc1"/><path d="M 142.14 85.29 A 28.43 28.43 0 0 1 170.57 113.72 L 142.14 113.72L142.14 85.29" fill="#d8dffa"/><rect x="170.57" y="56.86" width="56.86" height="56.86" fill="#ff3766"/><rect x="170.57" y="56.86" width="56.86" height="56.86" fill="#2147e2"/><rect x="227.42857142857142" y="56.857142857142854" width="56.857142857142854" height="56.857142857142854" fill="#ffffff"/><rect x="227.43" y="56.86" width="28.43" height="28.43" fill="#8a9ef0"/><polygon points="255.86,56.86 255.86,85.28999999999999 227.43,85.28999999999999" fill="#ffcad7"/><rect x="255.86" y="56.86" width="28.43" height="28.43" fill="#6d86ec"/><polygon points="255.86,56.86 284.29,85.28999999999999 255.86,85.28999999999999" fill="#8297ef"/><rect x="227.43" y="85.29" width="28.43" height="28.43" fill="#ffc1d0"/><polygon points="227.43,85.29 255.86,85.29 255.86,113.72" fill="#94a6f1"/><rect x="255.86" y="85.29" width="28.43" height="28.43" fill="#3355e4"/><polygon points="255.86,85.29 284.29,85.29 255.86,113.72" fill="#a8b6f4"/><rect x="284.2857142857143" y="56.857142857142854" width="56.857142857142854" height="56.857142857142854" fill="#ffffff"/><rect x="284.29" y="56.86" width="28.43" height="28.43" fill="#8ca0f0"/><path d="M 284.29 56.86 A 28.43 28.43 0 0 1 312.72 85.28999999999999 L 284.29 85.28999999999999L284.29 56.86" fill="#ff98b1"/><rect x="312.71" y="56.86" width="28.43" height="28.43" fill="#ffe5eb"/><path d="M 312.71 85.28999999999999 A 28.43 28.43 0 0 1  341.14 56.86 L 341.14 85.28999999999999L312.71 85.28999999999999" fill="#ffc9d6"/><rect x="284.29" y="85.29" width="28.43" height="28.43" fill="#ebeffc"/><path d="M 284.29 113.72 A 28.43 28.43 0 0 0 312.72 85.29 L 284.29 85.29L284.29 113.72" fill="#ff9cb4"/><rect x="312.71" y="85.29" width="28.43" height="28.43" fill="#ff89a5"/><path d="M 312.71 85.29 A 28.43 28.43 0 0 0 341.14 113.72 L 341.14 85.29L312.71 85.29" fill="#dce2fa"/><rect x="341.14" y="56.86" width="56.86" height="56.86" fill="#8b9ff0"/><rect x="341.14" y="56.86" width="56.86" height="56.86" fill="#c3cdf7"/><rect x="398" y="56.857142857142854" width="56.857142857142854" height="56.857142857142854" fill="#ffffff"/><rect x="398" y="56.86" width="28.43" height="28.43" fill="#7a91ee"/><path d="M 398 85.28999999999999 A 28.43 28.43 0 0 1 426.43 56.86 L 426.43 63.9675 A 21.322499999999998 21.322499999999998 0 0 0 405.1075 85.28999999999999" fill="#ffb0c3"/><rect x="426.43" y="56.86" width="28.43" height="28.43" fill="#ffa9bd"/><path d="M 426.43 56.86 A 28.43 28.43 0 0 1 454.86 85.28999999999999 L 447.7525 85.28999999999999 A 21.322499999999998 21.322499999999998 0 0 0 426.43 63.9675" fill="#7990ee"/><rect x="398" y="85.29" width="28.43" height="28.43" fill="#93a5f1"/><path d="M 398 85.29 A 28.43 28.43 0 0 0 426.43 113.72 L 426.43 106.61250000000001 A 21.322499999999998 21.322499999999998 0 0 1 405.1075 85.29" fill="#ff86a3"/><rect x="426.43" y="85.29" width="28.43" height="28.43" fill="#ff92ac"/><path d="M 426.43 113.72 A 28.43 28.43 0 0 0 454.86 85.29 L 447.7525 85.29 A 21.322499999999998 21.322499999999998 0 0 1 426.43 106.61250000000001" fill="#fff0f3"/><rect x="454.86" y="56.86" width="56.86" height="56.86" fill="#637eeb"/><polygon points="454.86,56.86 511.72,56.86 454.86,113.72" fill="#fffdfe"/><rect x="511.71428571428567" y="56.857142857142854" width="56.857142857142854" height="56.857142857142854" fill="#ffffff"/><rect x="511.71" y="56.86" width="28.43" height="28.43" fill="#3254e4"/><path d="M 511.71 85.28999999999999 A 28.43 28.43 0 0 1  540.14 56.86 L 540.14 85.28999999999999L511.71 85.28999999999999" fill="#ff8ea9"/><rect x="540.14" y="56.86" width="28.43" height="28.43" fill="#ffb4c6"/><path d="M 540.14 56.86 A 28.43 28.43 0 0 1 568.5699999999999 85.28999999999999 L 540.14 85.28999999999999L540.14 56.86" fill="#ffc2d0"/><rect x="511.71" y="85.29" width="28.43" height="28.43" fill="#d8dffa"/><path d="M 511.71 85.29 A 28.43 28.43 0 0 0 540.14 113.72 L 540.14 85.29L511.71 85.29" fill="#ffb5c6"/><rect x="540.14" y="85.29" width="28.43" height="28.43" fill="#ffeaef"/><path d="M 540.14 113.72 A 28.43 28.43 0 0 0 568.5699999999999 85.29 L 540.14 85.29L540.14 113.72" fill="#ffb4c6"/><rect x="568.5714285714286" y="56.857142857142854" width="56.857142857142854" height="56.857142857142854" fill="#ffffff"/><rect x="568.57" y="56.86" width="28.43" height="28.43" fill="#ff577f"/><path d="M 568.57 85.28999999999999 A 28.43 28.43 0 0 1 597 56.86 L 597 63.9675 A 21.322499999999998 21.322499999999998 0 0 0 575.6775 85.28999999999999" fill="#ff87a4"/><rect x="597" y="56.86" width="28.43" height="28.43" fill="#ffa5bb"/><path d="M 597 56.86 A 28.43 28.43 0 0 1 625.43 85.28999999999999 L 618.3225 85.28999999999999 A 21.322499999999998 21.322499999999998 0 0 0 597 63.9675" fill="#ffe7ec"/><rect x="568.57" y="85.29" width="28.43" height="28.43" fill="#fffcfd"/><path d="M 568.57 85.29 A 28.43 28.43 0 0 0 597 113.72 L 597 106.61250000000001 A 21.322499999999998 21.322499999999998 0 0 1 575.6775 85.29" fill="#ff4c76"/><rect x="597" y="85.29" width="28.43" height="28.43" fill="#b8c4f6"/><path d="M 597 113.72 A 28.43 28.43 0 0 0 625.43 85.29 L 618.3225 85.29 A 21.322499999999998 21.322499999999998 0 0 1 597 106.61250000000001" fill="#c8d1f8"/><rect x="0" y="113.71428571428571" width="56.857142857142854" height="56.857142857142854" fill="#ffffff"/><rect x="0" y="113.71" width="28.43" height="28.43" fill="#e0e5fb"/><path d="M 0 142.14 A 28.43 28.43 0 0 1 28.43 113.71 L 28.43 120.8175 A 21.322499999999998 21.322499999999998 0 0 0 7.1075 142.14" fill="#ffc2d0"/><rect x="28.43" y="113.71" width="28.43" height="28.43" fill="#fff9fa"/><path d="M 28.43 113.71 A 28.43 28.43 0 0 1 56.86 142.14 L 49.7525 142.14 A 21.322499999999998 21.322499999999998 0 0 0 28.43 120.8175" fill="#7e94ee"/><rect x="0" y="142.14" width="28.43" height="28.43" fill="#c2cdf7"/><path d="M 0 142.14 A 28.43 28.43 0 0 0 28.43 170.57 L 28.43 163.46249999999998 A 21.322499999999998 21.322499999999998 0 0 1 7.1075 142.14" fill="#4262e6"/><rect x="28.43" y="142.14" width="28.43" height="28.43" fill="#e6eafc"/><path d="M 28.43 170.57 A 28.43 28.43 0 0 0 56.86 142.14 L 49.7525 142.14 A 21.322499999999998 21.322499999999998 0 0 1 28.43 163.46249999999998" fill="#6d86ec"/><rect x="56.857142857142854" y="113.71428571428571" width="56.857142857142854" height="56.857142857142854" fill="#ffffff"/><rect x="56.86" y="113.71" width="28.43" height="28.43" fill="#4b69e8"/><polygon points="85.28999999999999,113.71 85.28999999999999,142.14 56.86,142.14" fill="#ffbecd"/><rect x="85.29" y="113.71" width="28.43" height="28.43" fill="#ffbccc"/><polygon points="85.29,113.71 113.72,142.14 85.29,142.14" fill="#7990ee"/><rect x="56.86" y="142.14" width="28.43" height="28.43" fill="#6d85ec"/><polygon points="56.86,142.14 85.28999999999999,142.14 85.28999999999999,170.57" fill="#ff4974"/><rect x="85.29" y="142.14" width="28.43" height="28.43" fill="#ffd0db"/><polygon points="85.29,142.14 113.72,142.14 85.29,170.57" fill="#ff6a8d"/><rect x="113.71428571428571" y="113.71428571428571" width="56.857142857142854" height="56.857142857142854" fill="#ffffff"/><rect x="113.71" y="113.71" width="28.43" height="28.43" fill="#f0f2fd"/><polygon points="142.14,113.71 142.14,142.14 113.71,142.14" fill="#768ded"/><rect x="142.14" y="113.71" width="28.43" height="28.43" fill="#ff4a75"/><polygon points="142.14,113.71 170.57,113.71 142.14,142.14" fill="#8196ef"/><rect x="113.71" y="142.14" width="28.43" height="28.43" fill="#b4c1f5"/><polygon points="113.71,142.14 142.14,142.14 142.14,170.57" fill="#ff557d"/><rect x="142.14" y="142.14" width="28.43" height="28.43" fill="#e6eafc"/><polygon points="142.14,142.14 170.57,170.57 142.14,170.57" fill="#8da0f0"/><rect x="170.57" y="113.71" width="56.86" height="56.86" fill="#ffaabe"/><path d="M 170.57 113.71 A 56.86 56.86 0 0 1  227.43 170.57 L 170.57 113.71 A 56.86 56.86 0 0 0 227.43 170.57" fill="#fff3f6"/><rect x="227.43" y="113.71" width="56.86" height="56.86" fill="#e6eafc"/><rect x="227.43" y="113.71" width="56.86" height="56.86" fill="#2146e2"/><rect x="284.2857142857143" y="113.71428571428571" width="56.857142857142854" height="56.857142857142854" fill="#ffffff"/><rect x="284.29" y="113.71" width="28.43" height="28.43" fill="#ffa3b9"/><path d="M 284.29 113.71 A 28.43 28.43 0 0 0 312.72 142.14 L 312.72 113.71L284.29 113.71" fill="#8a9ef0"/><rect x="312.71" y="113.71" width="28.43" height="28.43" fill="#f6f7fe"/><path d="M 312.71 142.14 A 28.43 28.43 0 0 0 341.14 113.71 L 312.71 113.71L312.71 142.14" fill="#ff8aa6"/><rect x="284.29" y="142.14" width="28.43" height="28.43" fill="#a1b1f3"/><path d="M 284.29 170.57 A 28.43 28.43 0 0 1  312.72 142.14 L 312.72 170.57L284.29 170.57" fill="#3f60e6"/><rect x="312.71" y="142.14" width="28.43" height="28.43" fill="#d8dffa"/><path d="M 312.71 142.14 A 28.43 28.43 0 0 1 341.14 170.57 L 312.71 170.57L312.71 142.14" fill="#a5b4f3"/><rect x="341.14" y="113.71" width="56.86" height="56.86" fill="#ff7294"/><path d="M 341.14 113.71 A 56.86 56.86 0 0 1 398 170.57 L 341.14 170.57L341.14 113.71" fill="#ffabbf"/><rect x="398" y="113.71428571428571" width="56.857142857142854" height="56.857142857142854" fill="#ffffff"/><rect x="398" y="113.71" width="28.43" height="28.43" fill="#ff9bb3"/><path d="M 398 142.14 A 28.43 28.43 0 0 1 426.43 113.71 L 426.43 120.8175 A 21.322499999999998 21.322499999999998 0 0 0 405.1075 142.14" fill="#ff9fb5"/><rect x="426.43" y="113.71" width="28.43" height="28.43" fill="#e1e6fb"/><path d="M 426.43 113.71 A 28.43 28.43 0 0 1 454.86 142.14 L 447.7525 142.14 A 21.322499999999998 21.322499999999998 0 0 0 426.43 120.8175" fill="#ffd8e1"/><rect x="398" y="142.14" width="28.43" height="28.43" fill="#ff547d"/><path d="M 398 142.14 A 28.43 28.43 0 0 0 426.43 170.57 L 426.43 163.46249999999998 A 21.322499999999998 21.322499999999998 0 0 1 405.1075 142.14" fill="#ffe2e9"/><rect x="426.43" y="142.14" width="28.43" height="28.43" fill="#ff7898"/><path d="M 426.43 170.57 A 28.43 28.43 0 0 0 454.86 142.14 L 447.7525 142.14 A 21.322499999999998 21.322499999999998 0 0 1 426.43 163.46249999999998" fill="#d3daf9"/><rect x="454.86" y="113.71" width="56.86" height="56.86" fill="#ff7d9c"/><polygon points="454.86,113.71 511.72,170.57 454.86,170.57" fill="#899df0"/><rect x="511.71" y="113.71" width="56.86" height="56.86" fill="#ff6a8d"/><rect x="511.71" y="113.71" width="56.86" height="56.86" fill="#c4cef7"/><rect x="568.57" y="113.71" width="56.86" height="56.86" fill="#ffd7e1"/><rect x="568.57" y="113.71" width="56.86" height="56.86" fill="#ff6187"/><rect x="0" y="170.57142857142856" width="56.857142857142854" height="56.857142857142854" fill="#ffffff"/><rect x="0" y="170.57" width="28.43" height="28.43" fill="#7a90ee"/><polygon points="28.43,170.57 28.43,199 0,199" fill="#ff6c8f"/><rect x="28.43" y="170.57" width="28.43" height="28.43" fill="#2147e2"/><polygon points="28.43,170.57 56.86,170.57 28.43,199" fill="#fefeff"/><rect x="0" y="199" width="28.43" height="28.43" fill="#ff829f"/><polygon points="0,199 28.43,199 28.43,227.43" fill="#dbe1fa"/><rect x="28.43" y="199" width="28.43" height="28.43" fill="#ff527b"/><polygon points="28.43,199 56.86,227.43 28.43,227.43" fill="#5874e9"/><rect x="56.86" y="170.57" width="56.86" height="56.86" fill="#ffc6d3"/><rect x="56.86" y="170.57" width="56.86" height="56.86" fill="#ffeff3"/><rect x="113.71" y="170.57" width="56.86" height="56.86" fill="#ced6f9"/><path d="M 113.71 227.43 A 56.86 56.86 0 0 0 170.57 170.57 L 113.71 170.57L113.71 227.43" fill="#b2bff5"/><rect x="170.57" y="170.57" width="56.86" height="56.86" fill="#ffffff"/><rect x="170.57" y="170.57" width="56.86" height="56.86" fill="#aebcf4"/><rect x="227.42857142857142" y="170.57142857142856" width="56.857142857142854" height="56.857142857142854" fill="#ffffff"/><rect x="227.43" y="170.57" width="28.43" height="28.43" fill="#2046e2"/><polygon points="255.86,170.57 255.86,199 227.43,199" fill="#ffdae3"/><rect x="255.86" y="170.57" width="28.43" height="28.43" fill="#dbe1fa"/><polygon points="255.86,170.57 284.29,199 255.86,199" fill="#cbd4f8"/><rect x="227.43" y="199" width="28.43" height="28.43" fill="#e4e8fb"/><polygon points="227.43,199 255.86,199 255.86,227.43" fill="#b8c4f6"/><rect x="255.86" y="199" width="28.43" height="28.43" fill="#ffdce4"/><polygon points="255.86,199 284.29,199 255.86,227.43" fill="#ffd9e2"/><rect x="284.29" y="170.57" width="56.86" height="56.86" fill="#7f94ee"/><rect x="284.29" y="170.57" width="56.86" height="56.86" fill="#cfd7f9"/><rect x="341.14" y="170.57" width="56.86" height="56.86" fill="#5975e9"/><path d="M 341.14 170.57 A 56.86 56.86 0 0 1 398 227.43 L 341.14 227.43L341.14 170.57" fill="#ff4873"/><rect x="398" y="170.57" width="56.86" height="56.86" fill="#dee3fb"/><rect x="398" y="170.57" width="56.86" height="56.86" fill="#ff547d"/><rect x="454.85714285714283" y="170.57142857142856" width="56.857142857142854" height="56.857142857142854" fill="#ffffff"/><rect x="454.86" y="170.57" width="28.43" height="28.43" fill="#a8b6f4"/><polygon points="483.29,170.57 483.29,199 454.86,199" fill="#ff4b76"/><rect x="483.29" y="170.57" width="28.43" height="28.43" fill="#ffdbe4"/><polygon points="483.29,170.57 511.72,199 483.29,199" fill="#254ae3"/><rect x="454.86" y="199" width="28.43" height="28.43" fill="#ffb3c5"/><polygon points="454.86,199 483.29,199 483.29,227.43" fill="#778eed"/><rect x="483.29" y="199" width="28.43" height="28.43" fill="#ffd6e0"/><polygon points="483.29,199 511.72,199 483.29,227.43" fill="#cfd7f9"/><rect x="511.71" y="170.57" width="56.86" height="56.86" fill="#c7d0f8"/><rect x="511.71" y="170.57" width="56.86" height="56.86" fill="#e5eafc"/><rect x="568.5714285714286" y="170.57142857142856" width="56.857142857142854" height="56.857142857142854" fill="#ffffff"/><rect x="568.57" y="170.57" width="28.43" height="28.43" fill="#cbd4f8"/><path d="M 568.57 170.57 A 28.43 28.43 0 0 0 597 199 L 597 170.57L568.57 170.57" fill="#ff9fb6"/><rect x="597" y="170.57" width="28.43" height="28.43" fill="#ff8ea9"/><path d="M 597 199 A 28.43 28.43 0 0 0 625.43 170.57 L 597 170.57L597 199" fill="#ffe7ed"/><rect x="568.57" y="199" width="28.43" height="28.43" fill="#ff7294"/><path d="M 568.57 227.43 A 28.43 28.43 0 0 1  597 199 L 597 227.43L568.57 227.43" fill="#91a3f1"/><rect x="597" y="199" width="28.43" height="28.43" fill="#ff7495"/><path d="M 597 199 A 28.43 28.43 0 0 1 625.43 227.43 L 597 227.43L597 199" fill="#fff4f7"/><rect x="0" y="227.42857142857142" width="56.857142857142854" height="56.857142857142854" fill="#ffffff"/><rect x="0" y="227.43" width="28.43" height="28.43" fill="#ff426f"/><polygon points="28.43,227.43 28.43,255.86 0,255.86" fill="#ff6b8e"/><rect x="28.43" y="227.43" width="28.43" height="28.43" fill="#ffd8e1"/><polygon points="28.43,227.43 56.86,227.43 28.43,255.86" fill="#92a5f1"/><rect x="0" y="255.86" width="28.43" height="28.43" fill="#ffacbf"/><polygon points="0,255.86 28.43,255.86 28.43,284.29" fill="#c8d1f8"/><rect x="28.43" y="255.86" width="28.43" height="28.43" fill="#b4c0f5"/><polygon points="28.43,255.86 56.86,284.29 28.43,284.29" fill="#ff6d90"/><rect x="56.857142857142854" y="227.42857142857142" width="56.857142857142854" height="56.857142857142854" fill="#ffffff"/><rect x="56.86" y="227.43" width="28.43" height="28.43" fill="#ff9db4"/><circle cx="71.075" cy="241.645" r="14.215" fill="#1940e1"/><rect x="85.29" y="227.43" width="28.43" height="28.43" fill="#ff6186"/><rect x="85.29" y="227.43" width="28.43" height="28.43" fill="#fff5f8"/><rect x="56.86" y="255.86" width="28.43" height="28.43" fill="#859aef"/><circle cx="71.075" cy="270.075" r="14.215" fill="#92a5f1"/><rect x="85.29" y="255.86" width="28.43" height="28.43" fill="#e7ebfc"/><rect x="85.29" y="255.86" width="28.43" height="28.43" fill="#ff98b1"/><rect x="113.71" y="227.43" width="56.86" height="56.86" fill="#ffa4ba"/><path d="M 113.71 227.43 A 56.86 56.86 0 0 1 170.57 284.29 L 113.71 284.29L113.71 227.43" fill="#ffe1e8"/><rect x="170.57142857142856" y="227.42857142857142" width="56.857142857142854" height="56.857142857142854" fill="#ffffff"/><rect x="170.57" y="227.43" width="28.43" height="28.43" fill="#a8b7f4"/><polygon points="199,227.43 199,255.86 170.57,255.86" fill="#ff5e84"/><rect x="199" y="227.43" width="28.43" height="28.43" fill="#ff7999"/><polygon points="199,227.43 227.43,255.86 199,255.86" fill="#ffb6c7"/><rect x="170.57" y="255.86" width="28.43" height="28.43" fill="#bdc8f6"/><polygon points="170.57,255.86 199,255.86 170.57,284.29" fill="#ffa6bb"/><rect x="199" y="255.86" width="28.43" height="28.43" fill="#2c50e4"/><polygon points="199,255.86 227.43,255.86 227.43,284.29" fill="#ffcad7"/><rect x="227.43" y="227.43" width="56.86" height="56.86" fill="#ff5a81"/><rect x="227.43" y="227.43" width="56.86" height="56.86" fill="#ff86a2"/><rect x="284.29" y="227.43" width="56.86" height="56.86" fill="#ffa9bd"/><path d="M 284.29 284.29 A 56.86 56.86 0 0 0 341.15000000000003 227.43 L 284.29 227.43L284.29 284.29" fill="#4f6de8"/><rect x="341.14" y="227.43" width="56.86" height="56.86" fill="#ffecf1"/><path d="M 341.14 284.29 A 56.86 56.86 0 0 0 398 227.43 L 341.14 227.43L341.14 284.29" fill="#8fa2f0"/><rect x="398" y="227.42857142857142" width="56.857142857142854" height="56.857142857142854" fill="#ffffff"/><rect x="398" y="227.43" width="28.43" height="28.43" fill="#e1e6fb"/><path d="M 398 255.86 A 28.43 28.43 0 0 1  426.43 227.43 L 426.43 255.86L398 255.86" fill="#ffdce4"/><rect x="426.43" y="227.43" width="28.43" height="28.43" fill="#2248e2"/><path d="M 426.43 227.43 A 28.43 28.43 0 0 1 454.86 255.86 L 426.43 255.86L426.43 227.43" fill="#fff0f3"/><rect x="398" y="255.86" width="28.43" height="28.43" fill="#ff4974"/><path d="M 398 255.86 A 28.43 28.43 0 0 0 426.43 284.29 L 426.43 255.86L398 255.86" fill="#ffd0db"/><rect x="426.43" y="255.86" width="28.43" height="28.43" fill="#8fa2f1"/><path d="M 426.43 284.29 A 28.43 28.43 0 0 0 454.86 255.86 L 426.43 255.86L426.43 284.29" fill="#ff7596"/><rect x="454.85714285714283" y="227.42857142857142" width="56.857142857142854" height="56.857142857142854" fill="#ffffff"/><rect x="454.86" y="227.43" width="28.43" height="28.43" fill="#788fed"/><polygon points="483.29,227.43 483.29,255.86 454.86,255.86" fill="#93a5f1"/><rect x="483.29" y="227.43" width="28.43" height="28.43" fill="#d0d8f9"/><polygon points="483.29,227.43 511.72,227.43 483.29,255.86" fill="#4968e7"/><rect x="454.86" y="255.86" width="28.43" height="28.43" fill="#899df0"/><polygon points="454.86,255.86 483.29,255.86 483.29,284.29" fill="#ffbbcb"/><rect x="483.29" y="255.86" width="28.43" height="28.43" fill="#9bacf2"/><polygon points="483.29,255.86 511.72,284.29 483.29,284.29" fill="#9fb0f3"/><rect x="511.71" y="227.43" width="56.86" height="56.86" fill="#ffe6ec"/><path d="M 511.71 284.29 A 56.86 56.86 0 0 1  568.5699999999999 227.43 L 568.5699999999999 284.29L511.71 284.29" fill="#ff3968"/><rect x="568.57" y="227.43" width="56.86" height="56.86" fill="#7b91ee"/><polygon points="568.57,227.43 625.4300000000001,227.43 625.4300000000001,284.29" fill="#f1f4fd"/><rect x="0" y="284.29" width="56.86" height="56.86" fill="#ffeff3"/><path d="M 0 284.29 A 56.86 56.86 0 0 1  56.86 341.15000000000003 L 0 284.29 A 56.86 56.86 0 0 0 56.86 341.15000000000003" fill="#ff7193"/><rect x="56.86" y="284.29" width="56.86" height="56.86" fill="#ff4a75"/><path d="M 56.86 284.29 A 56.86 56.86 0 0 1 113.72 341.15000000000003 L 56.86 341.15000000000003L56.86 284.29" fill="#eceffd"/><rect x="113.71428571428571" y="284.2857142857143" width="56.857142857142854" height="56.857142857142854" fill="#ffffff"/><rect x="113.71" y="284.29" width="28.43" height="28.43" fill="#ff6e91"/><path d="M 113.71 284.29 A 28.43 28.43 0 0 0 142.14 312.72 L 142.14 284.29L113.71 284.29" fill="#ff5a81"/><rect x="142.14" y="284.29" width="28.43" height="28.43" fill="#e4e8fb"/><path d="M 142.14 312.72 A 28.43 28.43 0 0 0 170.57 284.29 L 142.14 284.29L142.14 312.72" fill="#7a90ee"/><rect x="113.71" y="312.71" width="28.43" height="28.43" fill="#607bea"/><path d="M 113.71 341.14 A 28.43 28.43 0 0 1  142.14 312.71 L 142.14 341.14L113.71 341.14" fill="#4b6ae8"/><rect x="142.14" y="312.71" width="28.43" height="28.43" fill="#1f45e2"/><path d="M 142.14 312.71 A 28.43 28.43 0 0 1 170.57 341.14 L 142.14 341.14L142.14 312.71" fill="#7289ed"/><rect x="170.57" y="284.29" width="56.86" height="56.86" fill="#ffe4ea"/><rect x="170.57" y="284.29" width="56.86" height="56.86" fill="#9eaef2"/><rect x="227.43" y="284.29" width="56.86" height="56.86" fill="#ffdce5"/><path d="M 227.43 341.15000000000003 A 56.86 56.86 0 0 1  284.29 284.29 L 227.43 341.15000000000003 A 56.86 56.86 0 0 0 284.29 284.29" fill="#97a9f1"/><rect x="284.2857142857143" y="284.2857142857143" width="56.857142857142854" height="56.857142857142854" fill="#ffffff"/><rect x="284.29" y="284.29" width="28.43" height="28.43" fill="#ff92ac"/><polygon points="312.72,284.29 312.72,312.72 284.29,312.72" fill="#ff7d9c"/><rect x="312.71" y="284.29" width="28.43" height="28.43" fill="#ff90aa"/><polygon points="312.71,284.29 341.14,312.72 312.71,312.72" fill="#bfcaf7"/><rect x="284.29" y="312.71" width="28.43" height="28.43" fill="#ff4c76"/><polygon points="284.29,312.71 312.72,312.71 312.72,341.14" fill="#ff5e85"/><rect x="312.71" y="312.71" width="28.43" height="28.43" fill="#4968e7"/><polygon points="312.71,312.71 341.14,312.71 312.71,341.14" fill="#fff6f8"/><rect x="341.1428571428571" y="284.2857142857143" width="56.857142857142854" height="56.857142857142854" fill="#ffffff"/><rect x="341.14" y="284.29" width="28.43" height="28.43" fill="#7189ec"/><circle cx="355.35499999999996" cy="298.505" r="14.215" fill="#ff4874"/><rect x="369.57" y="284.29" width="28.43" height="28.43" fill="#ffdae3"/><rect x="369.57" y="284.29" width="28.43" height="28.43" fill="#ffb2c5"/><rect x="341.14" y="312.71" width="28.43" height="28.43" fill="#4d6be8"/><circle cx="355.35499999999996" cy="326.92499999999995" r="14.215" fill="#899df0"/><rect x="369.57" y="312.71" width="28.43" height="28.43" fill="#ff7092"/><rect x="369.57" y="312.71" width="28.43" height="28.43" fill="#ff4471"/><rect x="398" y="284.2857142857143" width="56.857142857142854" height="56.857142857142854" fill="#ffffff"/><rect x="398" y="284.29" width="28.43" height="28.43" fill="#edf0fd"/><circle cx="412.215" cy="298.505" r="14.215" fill="#ffd7e1"/><rect x="426.43" y="284.29" width="28.43" height="28.43" fill="#ffeaef"/><rect x="426.43" y="284.29" width="28.43" height="28.43" fill="#ffc7d4"/><rect x="398" y="312.71" width="28.43" height="28.43" fill="#fff7f9"/><circle cx="412.215" cy="326.92499999999995" r="14.215" fill="#ff7495"/><rect x="426.43" y="312.71" width="28.43" height="28.43" fill="#637deb"/><rect x="426.43" y="312.71" width="28.43" height="28.43" fill="#ffa1b7"/><rect x="454.86" y="284.29" width="56.86" height="56.86" fill="#e4e9fc"/><path d="M 454.86 284.29 A 56.86 56.86 0 0 1  511.72 341.15000000000003 L 454.86 284.29 A 56.86 56.86 0 0 0 511.72 341.15000000000003" fill="#5b77ea"/><rect x="511.71" y="284.29" width="56.86" height="56.86" fill="#ffbecd"/><path d="M 511.71 284.29 A 56.86 56.86 0 0 1  568.5699999999999 341.15000000000003 L 511.71 284.29 A 56.86 56.86 0 0 0 568.5699999999999 341.15000000000003" fill="#6d86ec"/><rect x="568.5714285714286" y="284.2857142857143" width="56.857142857142854" height="56.857142857142854" fill="#ffffff"/><rect x="568.57" y="284.29" width="28.43" height="28.43" fill="#ffedf1"/><polygon points="597,284.29 597,312.72 568.57,312.72" fill="#ffa9bd"/><rect x="597" y="284.29" width="28.43" height="28.43" fill="#5b77ea"/><polygon points="597,284.29 625.43,284.29 597,312.72" fill="#bfcaf7"/><rect x="568.57" y="312.71" width="28.43" height="28.43" fill="#fffcfc"/><polygon points="568.57,312.71 597,312.71 597,341.14" fill="#ffc5d3"/><rect x="597" y="312.71" width="28.43" height="28.43" fill="#ffc9d6"/><polygon points="597,312.71 625.43,341.14 597,341.14" fill="#ced6f9"/><rect x="0" y="341.14" width="56.86" height="56.86" fill="#ffffff"/><polygon points="0,341.14 56.86,341.14 0,398" fill="#a2b2f3"/><rect x="56.857142857142854" y="341.1428571428571" width="56.857142857142854" height="56.857142857142854" fill="#ffffff"/><rect x="56.86" y="341.14" width="28.43" height="28.43" fill="#ff5981"/><circle cx="71.075" cy="355.35499999999996" r="14.215" fill="#ffd3de"/><rect x="85.29" y="341.14" width="28.43" height="28.43" fill="#cad3f8"/><rect x="85.29" y="341.14" width="28.43" height="28.43" fill="#889cf0"/><rect x="56.86" y="369.57" width="28.43" height="28.43" fill="#ffbbcb"/><circle cx="71.075" cy="383.78499999999997" r="14.215" fill="#6f87ec"/><rect x="85.29" y="369.57" width="28.43" height="28.43" fill="#ff87a3"/><rect x="85.29" y="369.57" width="28.43" height="28.43" fill="#5a76ea"/><rect x="113.71" y="341.14" width="56.86" height="56.86" fill="#5f7aea"/><rect x="113.71" y="341.14" width="56.86" height="56.86" fill="#fff0f3"/><rect x="170.57" y="341.14" width="56.86" height="56.86" fill="#516fe8"/><path d="M 170.57 398 A 56.86 56.86 0 0 1  227.43 341.14 L 170.57 398 A 56.86 56.86 0 0 0 227.43 341.14" fill="#fff8f9"/><rect x="227.43" y="341.14" width="56.86" height="56.86" fill="#ff4f79"/><polygon points="227.43,341.14 284.29,341.14 284.29,398" fill="#637eeb"/><rect x="284.2857142857143" y="341.1428571428571" width="56.857142857142854" height="56.857142857142854" fill="#ffffff"/><rect x="284.29" y="341.14" width="28.43" height="28.43" fill="#4262e6"/><path d="M 284.29 341.14 A 28.43 28.43 0 0 0 312.72 369.57 L 312.72 341.14L284.29 341.14" fill="#bdc8f6"/><rect x="312.71" y="341.14" width="28.43" height="28.43" fill="#ff4b76"/><path d="M 312.71 369.57 A 28.43 28.43 0 0 0 341.14 341.14 L 312.71 341.14L312.71 369.57" fill="#ff87a3"/><rect x="284.29" y="369.57" width="28.43" height="28.43" fill="#4867e7"/><path d="M 284.29 398 A 28.43 28.43 0 0 1  312.72 369.57 L 312.72 398L284.29 398" fill="#5b76ea"/><rect x="312.71" y="369.57" width="28.43" height="28.43" fill="#ffeff3"/><path d="M 312.71 369.57 A 28.43 28.43 0 0 1 341.14 398 L 312.71 398L312.71 369.57" fill="#7a90ee"/><rect x="341.14" y="341.14" width="56.86" height="56.86" fill="#afbcf5"/><path d="M 341.14 341.14 A 56.86 56.86 0 0 1  398 398 L 341.14 341.14 A 56.86 56.86 0 0 0 398 398" fill="#8095ee"/><rect x="398" y="341.1428571428571" width="56.857142857142854" height="56.857142857142854" fill="#ffffff"/><rect x="398" y="341.14" width="28.43" height="28.43" fill="#1d43e2"/><polygon points="426.43,341.14 426.43,369.57 398,369.57" fill="#768ded"/><rect x="426.43" y="341.14" width="28.43" height="28.43" fill="#2a4ee3"/><polygon points="426.43,341.14 454.86,369.57 426.43,369.57" fill="#cfd7f9"/><rect x="398" y="369.57" width="28.43" height="28.43" fill="#6e86ec"/><polygon points="398,369.57 426.43,369.57 398,398" fill="#637deb"/><rect x="426.43" y="369.57" width="28.43" height="28.43" fill="#3557e5"/><polygon points="426.43,369.57 454.86,369.57 454.86,398" fill="#ff90aa"/><rect x="454.86" y="341.14" width="56.86" height="56.86" fill="#657feb"/><rect x="454.86" y="341.14" width="56.86" height="56.86" fill="#e0e5fb"/><rect x="511.71428571428567" y="341.1428571428571" width="56.857142857142854" height="56.857142857142854" fill="#ffffff"/><rect x="511.71" y="341.14" width="28.43" height="28.43" fill="#ffe2e9"/><path d="M 511.71 369.57 A 28.43 28.43 0 0 0 540.14 341.14 L 511.71 341.14L511.71 369.57" fill="#ffa3b9"/><rect x="540.14" y="341.14" width="28.43" height="28.43" fill="#8ea1f0"/><path d="M 540.14 341.14 A 28.43 28.43 0 0 0 568.5699999999999 369.57 L 568.5699999999999 341.14L540.14 341.14" fill="#ebeefc"/><rect x="511.71" y="369.57" width="28.43" height="28.43" fill="#5c78ea"/><path d="M 511.71 369.57 A 28.43 28.43 0 0 1 540.14 398 L 511.71 398L511.71 369.57" fill="#ffb5c7"/><rect x="540.14" y="369.57" width="28.43" height="28.43" fill="#fffcfc"/><path d="M 540.14 398 A 28.43 28.43 0 0 1  568.5699999999999 369.57 L 568.5699999999999 398L540.14 398" fill="#e4e8fb"/><rect x="568.57" y="341.14" width="56.86" height="56.86" fill="#2e51e4"/><path d="M 568.57 398 A 56.86 56.86 0 0 0 625.4300000000001 341.14 L 568.57 341.14L568.57 398" fill="#d6ddfa"/></g></svg>